<?xml version="1.0" encoding="UTF-8"?><svg id="Layer_12" xmlns="http://www.w3.org/2000/svg" xmlns:xlink="http://www.w3.org/1999/xlink" viewBox="0 0 1987.67 1987.67"><defs><filter id="drop-shadow-1"><feOffset dx="4" dy="7"/><feGaussianBlur result="blur" stdDeviation="6"/><feFlood flood-color="#231f20" flood-opacity=".3"/><feComposite in="blur" operator="in"/><feComposite in="SourceGraphic"/></filter></defs><g style="filter:url(#drop-shadow-1);"><path d="m1907.65,1274.32c-108.08,335.62-406.82,588.47-773.18,625.28-544.96,54.76-1015.81-384.1-999.58-931.56,10.79-363.76,237.09-677.3,559.44-811.22,27.71-11.51,53.42,19.93,36.67,44.83-104.24,155.01-154.3,348.81-124.29,553.32,53.24,362.86,353.79,640.49,719.73,664.82,207.83,13.82,398.37-52.55,545.08-170.39,17.67-14.19,43.07,3.34,36.12,24.91Z" style="fill:#fff; stroke:#fcfdff; stroke-linecap:round; stroke-linejoin:round; stroke-width:22.6px;"/><path d="m1587.23,1287.54v-43.87l-15.38-13.33v-1c0-12.42-.08-21.73-.08-22.13-.05-4.76-1.36-31.61-12.3-62.43-2.18-6.19-13.51-37.18-40.9-69.17-11.15-13.03-25.77-24.8-55.01-48.32-24.98-20.12-32.81-24.63-55.69-43.53-18.39-15.21-32.87-28.42-42.28-37.27.06-.91.12-2.21,0-3.78-.11-1.58-.63-7.52-4.47-12.58-1.28-1.69-.85-.53-5.2-4.88-.67-.66-2.69-3.07-6.7-7.85-.25-.28-1.24-1.48-2.03-3.32-.73-1.71-.79-2.82-.63-3.69.05-.35.12-.81.42-1.29.43-.7.9-.78,1.72-1.51.63-.56,1.05-.95,1.3-1.53.36-.88.08-1.76-.39-3.27-.4-1.28-.67-2.14-1.42-3.05-.84-1.01-1.81-1.51-2.4-1.74v-14.65s.62-.36.77-.53c.17-.2.35-.26.43-.28,3.04-1.04,3.86-2.52,3.86-2.52.49-.91.2-2,0-2.77-.51-1.9-1.89-2.84-2.14-3-.97-.63-1.38-.76-1.38-.76v-7.44l-.23-.86s.4-.49.23-.79v-1.53c.17,0,.06-.61-.11-.79-.17-.18-.51-.54-.51-.54h-.92v-4.16l2.34-.61s.34-.2.91-.43c.57-.25.92-.31,1.32-.92.4-.61.57-.5.62-.97.06-.49-.11-.97-.28-1.29-.17-.3-.34-.54-.46-.73-.11-.18-.4-.5-.57-.74-.17-.25-.51-.61-.85-.86-.35-.23.05.13-.69-.61-.74-.73-1.14-.79-1.31-1.09,0,0-.05-.05-.63-.61-1.35-6.32-2.25-9.47-2.72-10.08h-.02c-.43.68-.43,3.83,0,10.08,0,0-.45.3-.62.61-.17.3-.57.36-1.31,1.09-.75.74-.35.38-.69.61-.34.25-.68.61-.85.86-.18.25-.46.56-.58.74-.11.18-.28.43-.45.73-.17.31-.34.79-.29,1.29.06.48.23.36.63.97.4.61.74.68,1.31.92.57.23.92.43.92.43l1.18.61v4.16h.23s-.34.36-.51.54c-.17.18-.29.79.28.79v1.53c-.57.3-.17.79-.17.79l1.71.86v7.44s-2.34.13-3.31.76c-.26.16-1.63,1.11-2.14,3-.22.78-.51,1.86,0,2.77,0,0,.8,1.49,3.86,2.52.06.02.26.08.43.28.15.16,1.15.53,1.15.53v15.38c-.59.23-1.56.73-2.39,1.74-.76.91-1.03,1.77-1.42,3.05-.48,1.51-.74,2.39-.39,3.26.23.58.66.96,1.28,1.52.82.73,1.3.81,1.71,1.51.29.48.37.94.43,1.29.14.86.09,1.97-.65,3.68-.77,1.84-1.76,3.03-2.01,3.31-4.01,4.77-6.04,7.17-6.69,7.84-4.35,4.34-3.92,3.18-5.2,4.87-3.83,5.05-4.34,10.99-4.45,12.56-.12,1.57-.08,2.87,0,3.78-9.4,8.83-23.86,22.02-42.22,37.2-12.48,10.31-20.46,16.32-29.21,22.93-3.06,2.3-6.19,4.69-9.65,7.34.06.96.06,1.62-.17,2.49l-.45,1.72-8.32,2.77-4.26,1.41-21.51-6.88-16.69-1.23v-225.27l7.32-7.37s0-3.13.17-3.86c.17-.75.7-1.66,1.71-3.31,1.03-1.66,2.92-3.31,3.43-4.06.53-.73,1.37-1.84,1.9-2.2.51-.36,1.71-1.47,1.71-1.47l2.05-12.51,4.46-10.32-7.38-6.81v-28.21l-26.14-8.1v-76.4l1.18-4.77s1.2-3.12,1.2-3.84,0-3.86-.17-4.59c-.17-.73-.51-1.47-1.03-2.57-.51-1.09-1.18-2.38-1.18-2.38v-12.84l3.08-2.19,1.54-3.12.68-15.21,2.57-6.96s1.54-2.03,2.91-3.3c1.37-1.29,2.21-1.85,3.25-2.76,1.01-.92,2.55-2.01,2.55-2.01l1.03-.92,1.88-14.31.69-11.91-.17-3.3s-1.37-2.38-1.71-2.94c-.35-.54-.86-.73-1.54-2.19-.69-1.47-2.91-2.94-2.91-2.94v-22s-3.25-2.38-3.77-2.76c-.51-.36-1.02-.36-3.25-1.83-2.21-1.47-2.21-1.83-4.44-2.74-2.21-.92-2.91-1.11-4.78-1.65-1.88-.56-3.75-.92-4.28-1.11-.51-.18-1.88.54-2.72,0-.86-.54-2.74-.92-2.74-.92h-.17v-26.77s1.57-1.47,2.2-2.56c.62-1.11,1.88-2.39,2.19-3.12.32-.74.64-.92,1.57-2.39.95-1.47,1.74-2.94,1.74-2.94v-4.83s1.48-4.58,1.85-5.36c.37-.79,1.3-1.79,1.48-2.98.18-1.18.92-3.38.92-3.38,0,0,.37-1.57.37-2.97v-1.66l-.82-1.42-3.96-3.9s-4.29-2.29-4.78-2.29-4.29-.89-4.29-.89v-9.13l-3.08-3.48v-58.54s-.83-1.61-1.32-3.41c-.51-1.79,0-1.26-1.34-4.29-1.34-3.05-.35-1.99-1.85-3.96q-1.5-1.97-2.5-3.23c-1.01-1.26-1.17-1.79-2.35-2.7-1.17-.89.68,0-1.17-.89-1.84-.9-2.17-1.08-3.01-1.44-.83-.36-1.84,0-1.84,0v-1.5l-1.51-1.52s-.06-.61-.28-1.47c-.23-.86-.4-1.35-.57-2.44-.18-1.11.82-2.08.82-2.08v-31.46s-4.95-4.26-5.31-4.65c-.36-.39-.36-.05-1.95-1.7-1.6-1.65-1.72-1.65-2.64-2.76-.91-1.11-1.09-1.31-1.4-1.82-.3-.53-.43-.14-.66-1.26-.25-1.11-.43-1.11-.49-2.04-.07-.9-.18-.39-.31-1.89-.12-1.5.13-1.96,0-3.47-.12-1.5,0-6.49-.03-6.95-.02-.46.35-1.5-.26-2.16-.61-.65-.36-.65-1.53-.92-1.15-.27-1.34.19-2.08-.78-.73-.99-.73-.8-1.04-1.45-.3-.65-.54-.92-.54-1.63s.07-.8,0-1.26c-.07-.46-.43-1.31,0-1.77.43-.46.54-.78.92-1.11.36-.32.3-.32.66-.65.38-.32,2.94-4.26,2.94-4.26,0,0,.61-.19,1.17-1.82.54-1.65.54-.34.91-2.88.36-2.57.74-1.38.54-4.26-.18-2.88-.12-3.2-.43-4.32-.3-1.11-3.66-5.77-3.84-6.03s-.61-.8-1.29-1.77c-.66-.99-.91-1.04-1.27-2.16-.38-1.12-.51-2.04-.51-2.04v-12.63s1.8-2.44,2.08-2.99c.29-.56.29.23.63-1.72.34-1.96.69-1.58.52-3.12-.18-1.53-.12-1.65-.69-2.76-.57-1.09-.51-.97-1.14-2.01s-.49-1.47-1.15-2.08q-.66-.61-1.12-1.34c-.46-.74-.8-1.4-.66-1.4v-8.38c-.14,0,2.66-2.33,3.11-2.87.46-.54-.11.13,1.6-1.72,1.71-1.83,2.61-2.26,3.48-3.35.85-1.11,1.65-1.9,2.51-2.82.85-.91,1.14-.73,1.98-2.31.86-1.6,1.43-2.64,1.77-3.8.34-1.16.69-1.83.74-2.94.06-1.09.23-2.19.23-2.56s.34-8.2.34-8.81.17-.61-.68-2.44c-.86-1.83-1.26-2.69-2-3.6-.74-.92-1.81-2.26-3.01-3.12-1.2-.86-.63-.99-2.68-1.65-2.05-.68-2.61-.92-4.34-1.17-1.71-.23-2.32-.54-3.75-.54s-3.31-.91-3.31-.91h-1s-1.88.91-3.29.91-2.06.31-3.77.54c-1.71.25-2.28.5-4.32,1.17-2.06.66-1.49.79-2.68,1.65-1.2.86-2.29,2.19-3.03,3.12-.74.91-1.14,1.77-1.98,3.6-.86,1.83-.69,1.83-.69,2.44s.34,8.43.34,8.81.18,1.47.23,2.56c.06,1.11.4,1.78.74,2.94.35,1.16.92,2.19,1.77,3.8.86,1.58,1.14,1.4,2,2.31.85.92,1.65,1.72,2.51,2.82.85,1.09,1.77,1.52,3.48,3.35,1.71,1.85,1.14,1.17,1.58,1.72.46.54,3.26,2.87,2.91,2.87v8.38c.35,0,0,.66-.45,1.4q-.46.73-1.12,1.34c-.66.61-.54,1.04-1.15,2.08-.63,1.04-.58.92-1.15,2.01-.57,1.11-.51,1.22-.68,2.76-.17,1.53.17,1.16.51,3.12.35,1.95.35,1.16.63,1.72.29.54,1.88,2.99,1.88,2.99v15.48s-.14.84-.47,1.86c-.33,1.02-.56,1.07-1.18,1.98-.62.89-1,1.38-1.18,1.62-.17.24-3.23,4.51-3.52,5.53-.27,1.02-.23,1.31-.39,3.95-.17,2.64.17,1.56.5,3.91.35,2.33.35,1.13.85,2.64.5,1.49,1.06,1.67,1.06,1.67,0,0,2.36,3.61,2.69,3.91.33.31.29.31.62.6.33.31.45.6.83,1.02.39.42.06,1.2,0,1.62-.05.42,0,.49,0,1.15s-.21.89-.5,1.49c-.27.6-.27.42-.95,1.33-.66.89-.83.47-1.9.71-1.06.24-.83.24-1.39.84-.56.6-.23,1.56-.26,1.98-.01.42.09,4.99-.03,6.37-.11,1.38.12,1.8,0,3.18-.11,1.38-.23.91-.27,1.73-.06.84-.23.84-.45,1.86-.23,1.02-.33.66-.62,1.15-.27.47-.44.65-1.28,1.67-.83,1.02-.95,1.02-2.4,2.53-1.45,1.51-1.45,1.2-1.8,1.56-.33.36-4.86,4.26-4.86,4.26v34.31s-.34.97-.51,2.08c-.17,1.09-.34,1.58-.57,2.44-.23.86-.29,1.47-.29,1.47l-.17,1.52v.52s-1.09-.39-2.02,0c-.91.39-1.29.59-3.31,1.58-2.02.98,0,0-1.29.98-1.27.99-1.47,1.58-2.57,2.97q-1.11,1.39-2.76,3.55c-1.66,2.17-.55.99-2.02,4.35-1.47,3.34-.93,2.75-1.47,4.72-.55,1.97-1.47,3.75-1.47,3.75v57.53l-3.08,3.48v9.13s-3.78.89-4.27.89-4.79,2.29-4.79,2.29l-3.95,3.9-.83,1.42v1.68c0,1.39.36,2.96.36,2.96,0,0,.75,2.19.93,3.37.18,1.19,1.11,2.19,1.48,2.97.37.78,1.84,5.34,1.84,5.34v4.86s.78,1.47,1.72,2.94c.95,1.47,1.26,1.65,1.57,2.39.31.73,1.57,2.01,2.2,3.12.62,1.09,2.19,2.56,2.19,2.56v26.77h-.17s-1.88.38-2.74.92c-.86.54-2.21-.18-2.74,0-.51.18-2.38.54-4.28,1.11-1.88.54-2.55.73-4.78,1.65-2.21.91-2.21,1.27-4.44,2.74-2.21,1.47-2.72,1.47-3.24,1.83-.51.38-3.75,2.76-3.75,2.76v22s-2.23,1.47-2.91,2.94c-.68,1.47-1.2,1.65-1.54,2.19-.34.56-1.71,2.94-1.71,2.94l-.17,3.3.68,11.91,1.88,14.31,1.03.92s1.54,1.09,2.57,2.01c1.01.91,1.88,1.47,3.24,2.76,1.37,1.27,2.91,3.3,2.91,3.3l2.55,6.96.69,15.21,1.54,3.12,3.08,2.19v11.71s-.71,1.32-1.23,2.44c-.52,1.14-.87,1.9-1.06,2.64-.17.75-.17,3.95-.17,4.71s1.23,3.95,1.23,3.95l1.23,4.9v78.3l-26.14,8.1v26.98l-7.36,6.8,4.44,10.31,2.07,12.5s1.2,1.11,1.71,1.47c.51.36,1.37,1.47,1.88,2.2.51.74,2.41,2.4,3.42,4.06,1.03,1.66,1.54,2.57,1.71,3.31.18.73.18,3.86.18,3.86l7.31,7.37v224.16l-16.53,1.24-21.26,6.93-12.45-4.21c.07-1.13-.17-1.57-.46-1.74-.96-.55-3.4,1.42-3.4,1.42h0s.06-.9.17-2.59c-1.8,2.32-3.2,3.32-4.14,3.8,0,0-.03.02-2.07,1.04h0c18.66-1.86,37.32-3.72,55.98-5.58-19.51.31-39.02.62-58.53.93-1.68.05-3.36.11-5.04.16.02,18.1.04,36.19.06,54.29h-6.15v10.51l.95.99c.96.97.72.97,1.91,2.19,1.19,1.22,2.86,2.44,2.86,2.44l1.19,1.72,3.33,11.49c.29-.02,25.13,30.14,25.13,30.14v262.27c52.03,24.76,113.43,43.89,183.82,48.61,37.89,2.54,73.77.61,107.45-4.52,35.8-5.46,36.31-9.55,61.66-13.38,44.81-6.78,84.34-.2,114.25,4.78,12.91,2.15,23.59,4.46,31.07,6.21,1.67-3.22,4.26-7.03,8.29-10.36,13.87-11.46,32.5-6.92,35.21-6.21,11.74-11.05,23.48-22.1,35.21-33.14-1.62-31.88-3.25-63.76-4.87-95.63ZM1113.56,164.02c-1.51-1.06-3.78-2.64-5.01-5.87-.22-.59-1.51-4.16-.11-8.18,1.49-4.26,4.95-6.06,6.49-6.85,4.18-2.16,8.09-1.5,9.69-1.22,2.61.48,7.94,1.44,10.6,6.6,1.89,3.71,1.85,8.47-.12,12.1-3.37,6.25-10.75,6.24-12.64,6.24-1.28,0-5.11-.16-8.89-2.81Z" style="fill:#fff; stroke:#fff; stroke-linecap:round; stroke-linejoin:round; stroke-width:9.32px;"/></g><path d="m1799.56,1498.36c-78.69,118.31-184.49,217.37-308.92,287.99-15.92-11.48-31.64-25.15-46.86-40.78l-10.16,2.25c-20.72,37.29-45.1,71.69-74.72,99.87-70.85,26.28-145.97,44.01-224.18,51.89-19.83-15.41-35.09-39.97-44.99-74.69l-5.07,1.13c-15.92,30.94-35.01,56.66-56.1,78.1-134.32-2.06-262.25-33.81-377.15-89.14-2.86-57.74,11.8-125.83,53.53-200.17l-5.39-4.85c-66.25,68.27-133.29,100.79-198.6,112.65-39.29-34.95-76-73.24-109.77-114.44,46.54,2.78,89.76,3.25,130.1,1.81,36.62-100.34,36.98-299.05,8.81-609.88-7.51-91.85-21.33-176.58-3.31-208.68,12.87-22.96,46.94-50.68,70.13-69.3l4.2,2.79c1.14,5.37,2.38,10.75,3.7,16.14.6,4.63,1.24,9.27,1.92,13.93,11.18,76.15,33.24,148.56,64.53,215.64l-42.86,25.49c7.13,96.64,12.19,196.96,10.39,311.59-1.96,88.09-10.57,181.86-43.52,240.56-11.33,20.19-22.79,36.51-35.8,55.57l2.02,2.6c40.24-9.82,74.04-22.63,104.99-38.6,66.67-36.32,102.72-100.54,191.24-258.34,11.08-19.76,21.95-39.71,32.66-59.81,22.73,18.27,46.51,35.27,71.21,50.93-36.55,67.24-73.48,134.21-110.8,200.73-45.3,80.72-83.24,152.49-92.86,219.13-5.23,36.84.6,78.81,18.58,111.62,1.64-.43,3.32-.83,5.03-1.21l43.18-9.51c115.3-26.81,200.82-78.68,244.06-187.42l49.57-124.49,90.85-58.81,6.37,5.77c-34.36,99.61-57.09,176.49-49.39,217.94,7.98,42.82,39.53,63.21,78.89,54.54,36.83-8.11,76.16-31.14,105.57-64.93,37.78-45.69,36.68-87.15,49.34-239.48l3.31-3.23c9.58-.25,19.1-.7,28.59-1.29.01-.01.03-.01.04,0,16.21,1.24,31.07,3.52,44.27,5.69,1.35,27.67,4.21,54.59,8.3,76.58,19.52,104.99,100.65,143.22,161.6,129.8,35.57-7.81,63.46-35.52,55.75-76.97-7.4-39.82-26.65-96.71-49-155.14,43.11-9.86,84.98-23.39,125.33-40.24,6.76,27.4,12,51.86,15.92,72.99,3.77,20.2,5.42,42.67,5.49,65.67Z" style="fill:#efefef; stroke:#efefef; stroke-linecap:round; stroke-linejoin:round; stroke-width:22.6px;"/><path d="m449.74,893.69c-6.66-38.23-24.16-67.18-50.12-89.96-19.76-17.34-45.37-22.04-72.05-20.37-26.68,1.65-69.3,21.76-88.84,47.44-17.17,22.55-37.08,57.34-53.54,88.86-15.47-1.25-31.59.9-48.04,5.8-1.07,14.11-1.84,28.31-2.25,42.57-.26,8.68-.39,17.32-.4,25.96,21.2,5.45,46.91,18.49,74.54,42.74,51.35,45.08,96.44,97.16,141.12,150.98,23.02-10.72,53.17-28.41,69.09-48.72,7.37-59.6,19.8-117.08,36.73-171.99-.28-24.83-2.35-49.26-6.23-73.31Zm-73.47,170.67l-7.49,4.91c-25.97-36.37-59.33-72.95-78.51-89.78-28.78-25.26-59.87-46.26-85.34-56.09,16.04-9.94,38.86-27.54,59.91-47.74l23.09-34.08c14.64,5.52,28.39,13.42,39.68,23.32,53.61,47.06,52.75,123.62,48.66,199.46Z" style="fill:#efefef; stroke:#efefef; stroke-linecap:round; stroke-linejoin:round; stroke-width:22.6px;"/></svg>