<svg width="786" height="745" viewBox="0 0 786 745" fill="none" xmlns="http://www.w3.org/2000/svg">
<path d="M720.5 263.854L196.5 636.354V490.583M65.5 263.854L589.5 636.354V490.583M643.472 168.774L621.89 136.397C609.969 118.486 604.008 109.515 596.181 108.708C588.387 107.87 579.642 116.375 562.187 133.386C505.791 188.33 449.396 180.197 393 279.003C336.605 180.197 280.209 188.33 223.814 133.386C206.358 116.375 197.614 107.87 189.819 108.708C181.992 109.515 176.031 118.486 164.11 136.397L142.561 168.774C134.21 181.252 130.05 187.523 131.197 194.104C132.31 200.684 138.303 205.185 150.323 214.187L352.783 366.23C372.138 380.757 381.832 388.021 393 388.021C404.168 388.021 413.862 380.757 433.217 366.23L635.678 214.187C647.697 205.185 653.69 200.684 654.804 194.104C655.95 187.523 651.791 181.252 643.472 168.774Z" stroke="url(#paint0_angular_3004_2)" stroke-width="34" stroke-linecap="round" stroke-linejoin="round"/>
<defs>
<radialGradient id="paint0_angular_3004_2" cx="0" cy="0" r="1" gradientUnits="userSpaceOnUse" gradientTransform="translate(393 372.503) rotate(90) scale(263.851 327.5)">
<stop stop-color="#2D804D"/>
<stop offset="0.605" stop-color="#59A978"/>
<stop offset="1" stop-color="#75C594"/>
</radialGradient>
</defs>
</svg>
